<svg id="Layer_1" data-name="Layer 1" xmlns="http://www.w3.org/2000/svg" viewBox="0 0 271.54 388.59"><defs><style>.cls-1{stroke:#00f9ff;stroke-miterlimit:10;stroke-width:10.57px;}</style></defs><title>icon</title><path class="cls-1" d="M194.45,417.14q-19.81-2-34.16-8.72a97,97,0,0,1-24.54-16.06,73.77,73.77,0,0,1-16-20.52,94.91,94.91,0,0,1-8.42-23.16,102.35,102.35,0,0,1-2.22-35.41,57.31,57.31,0,0,1,13.43-30.79,8.34,8.34,0,0,0,1.56-2.09h.52q3.1-3.15,6.75-6.28a50.33,50.33,0,0,1,8.31-5.76,71.56,71.56,0,0,1,10.4-4.73,46.76,46.76,0,0,1,24.49-1.14q9.89,2.06,9.42,11.43a8.76,8.76,0,0,1-1.29,4.7c-.86,1.39-1.64,2.79-2.33,4.17q-1.54,2.1-3.11,4.18a34.86,34.86,0,0,0-5.7,7.84,96.1,96.1,0,0,0-5.17,9.65,89.47,89.47,0,0,0-4.65,12.27,78.48,78.48,0,0,0-3.06,17.72,63.4,63.4,0,0,0,1.11,15.89,35.69,35.69,0,0,0,7.35,15.86c0,.34.79,1.56,2.36,3.64a40.24,40.24,0,0,0,7.32,7,50.77,50.77,0,0,0,12.79,7,58.39,58.39,0,0,0,18.77,3.58q15.1.45,25-3.74t15.59-10a41,41,0,0,0,8.82-11.76,78.14,78.14,0,0,0,5.67-14.34,87,87,0,0,0,2.81-14.34,59.52,59.52,0,0,0,.22-12.25,91.61,91.61,0,0,0-7.92-26.8q-6.3-13.77-13.12-25.74Q237.08,255,227.66,242a213.64,213.64,0,0,1-21.22-33.53A126.5,126.5,0,0,1,194.05,171a116.29,116.29,0,0,1,.89-40.9Q199,108.7,212.49,86.77t29.58-31.89q16.11-10,30.69-12.62a101,101,0,0,1,33.86-.65,61.31,61.31,0,0,1,19.31,7.74,88.93,88.93,0,0,1,17,12.71,84,84,0,0,1,15.44,20,95.53,95.53,0,0,1,9.48,26.53q3.18,15.1.13,34.91a132,132,0,0,1-8.23,28.16,238.2,238.2,0,0,1-11.88,27.14,161.33,161.33,0,0,1-16.06,25.06,40.16,40.16,0,0,1-9.6,8.64q-6.51,4.45-11.73.3a55.78,55.78,0,0,1-8.63-9.87,76.56,76.56,0,0,1-7.6-13.25,42.41,42.41,0,0,1-3.7-14.32,23,23,0,0,1,3.07-13.55,59.38,59.38,0,0,1,3.62-6.27q2.07-3.14,4.15-6.26A125.4,125.4,0,0,0,314,143.7a75.94,75.94,0,0,0,4.85-26.07,41,41,0,0,0-6.34-22.38q-6.29-9.87-20.37-14a32,32,0,0,0-16.15.06,37.4,37.4,0,0,0-13.52,6.56q-6.75,5-11.4,16.46A182.84,182.84,0,0,0,243.9,127a93.24,93.24,0,0,0-2.5,26.58,144.51,144.51,0,0,0,5.06,31.24q4.48,16.92,15,35.63,12,20.81,21.51,41.08a331.28,331.28,0,0,1,15.25,36.93q6.82,19.78,7.94,34.88.54,5.2-1,17.19a75.66,75.66,0,0,1-8.24,25q-6.72,13-19.7,24.82t-35.37,16Q222.58,420.16,194.45,417.14Z" transform="translate(-103.2 -35.2)"/></svg>