<svg id="Layer_1" data-name="Layer 1" xmlns="http://www.w3.org/2000/svg" viewBox="0 0 790.88 258.79"><defs><style>.cls-1{stroke:#00f9ff;stroke-miterlimit:10;stroke-width:5px;}</style></defs><title>logo</title><path class="cls-1" d="M325.32,409.11a49.89,49.89,0,0,1-16.14-4.19,45.58,45.58,0,0,1-11.57-7.63,34.87,34.87,0,0,1-7.52-9.73,44.9,44.9,0,0,1-3.94-11,48.28,48.28,0,0,1-1-16.75,27.08,27.08,0,0,1,6.4-14.53,4,4,0,0,0,.74-1h.25q1.47-1.49,3.2-3a23.35,23.35,0,0,1,3.94-2.71,34.65,34.65,0,0,1,4.93-2.22,22.11,22.11,0,0,1,5.17-1,21.78,21.78,0,0,1,6.4.49c3.12.66,4.6,2.46,4.44,5.42a4.13,4.13,0,0,1-.62,2.22c-.41.65-.78,1.31-1.11,2l-1.47,2a16.18,16.18,0,0,0-2.71,3.69,43.85,43.85,0,0,0-2.47,4.56,42,42,0,0,0-2.21,5.79,36.62,36.62,0,0,0-1.48,8.37,30,30,0,0,0,.49,7.52,16.86,16.86,0,0,0,3.45,7.51,6.67,6.67,0,0,0,1.11,1.72,18.79,18.79,0,0,0,3.45,3.33,24.51,24.51,0,0,0,6,3.33,27.72,27.72,0,0,0,8.87,1.72,28.23,28.23,0,0,0,11.82-1.72,23.14,23.14,0,0,0,7.39-4.68,19.4,19.4,0,0,0,4.19-5.55,36.38,36.38,0,0,0,2.71-6.77,42.4,42.4,0,0,0,1.36-6.78,28.62,28.62,0,0,0,.12-5.78,43.22,43.22,0,0,0-3.7-12.69q-3-6.53-6.15-12.19-3.94-6.41-8.38-12.57a100.57,100.57,0,0,1-10-15.89,60.06,60.06,0,0,1-5.79-17.73,55,55,0,0,1,.5-19.34,61.1,61.1,0,0,1,8.37-20.44q6.4-10.35,14-15A42.39,42.39,0,0,1,363,232a47.62,47.62,0,0,1,16-.25,28.73,28.73,0,0,1,9.11,3.7,41.57,41.57,0,0,1,8,6,40,40,0,0,1,7.27,9.48A44.23,44.23,0,0,1,407.84,280a62.09,62.09,0,0,1-3.94,13.3,110.08,110.08,0,0,1-5.67,12.81A76.26,76.26,0,0,1,390.6,318,19.18,19.18,0,0,1,386,322c-2.06,1.4-3.9,1.44-5.54.13a26.49,26.49,0,0,1-4.07-4.69,37,37,0,0,1-3.57-6.28,20.06,20.06,0,0,1-1.72-6.77,10.85,10.85,0,0,1,1.47-6.41,28.26,28.26,0,0,1,1.73-2.95c.65-1,1.31-2,2-3a59.19,59.19,0,0,0,6-12.07,35.82,35.82,0,0,0,2.34-12.32,19.41,19.41,0,0,0-2.95-10.59q-3-4.68-9.61-6.65a15.17,15.17,0,0,0-7.63,0,17.54,17.54,0,0,0-6.41,3.08q-3.21,2.34-5.42,7.76A86.51,86.51,0,0,0,349.21,272,44.46,44.46,0,0,0,348,284.59a68.11,68.11,0,0,0,2.34,14.78,72.59,72.59,0,0,0,7,16.87q5.67,9.86,10.1,19.46a154,154,0,0,1,7.14,17.49,66.08,66.08,0,0,1,3.7,16.51,40.92,40.92,0,0,1-.49,8.13,36.14,36.14,0,0,1-3.94,11.82,42.14,42.14,0,0,1-9.36,11.7q-6.17,5.55-16.76,7.51Q338.63,410.59,325.32,409.11Z" transform="translate(-282.34 -228.69)"/><path class="cls-1" d="M409.81,356.89q4.68-8.13,10.22-16.38a140,140,0,0,1,11.21-14.66,52.3,52.3,0,0,1,11-9.73q5.3-3.33,9.73-1.11a38.33,38.33,0,0,1,5.67,3,25,25,0,0,1,5.91,5.17,5.81,5.81,0,0,1,1.23,2.71,8.91,8.91,0,0,1-.12,3.2,16.41,16.41,0,0,1-1.85,4.68c-.66,1.15-1.64,3-3,5.42s-2.75,5.3-4.31,8.5-3.08,6.57-4.55,10.1a66.55,66.55,0,0,0-3.33,9.85,28.61,28.61,0,0,0-1,7.76q.12,3.21,2.58,3.94c1.81.5,3.78-.08,5.91-1.72a30.31,30.31,0,0,0,6-6.4,95.33,95.33,0,0,0,5.3-8.26q2.46-4.31,3.69-7a4.34,4.34,0,0,1,1.23-2,5.41,5.41,0,0,1,4.44-1.23,2.44,2.44,0,0,1,2.46,2.71,8.29,8.29,0,0,1-.49,2.46q-1.49,3.21-4.31,8.38t-6.41,10.59a123.25,123.25,0,0,1-7.63,10.35,30.63,30.63,0,0,1-8.5,7.39,15.77,15.77,0,0,1-5.42,1.84,20.23,20.23,0,0,1-4.93.13,22.29,22.29,0,0,1-4.93-1q-6.15-2.71-7.51-9.85a50.81,50.81,0,0,1-.12-16.26,100.55,100.55,0,0,1,4.43-18.6q3.19-9.48,6.16-17.12l-.25.25a99,99,0,0,0-13.79,16.26,186.91,186.91,0,0,0-12.44,20.07A196,196,0,0,0,400,398a2.22,2.22,0,0,1-1.11,1.84,3.7,3.7,0,0,1-1.36.37,19.73,19.73,0,0,1-7.88-2.21,14.7,14.7,0,0,1-4.43-3.7,4,4,0,0,1-1.24-2.95,2.28,2.28,0,0,1,0-1.48,84.85,84.85,0,0,1,1.24-10.23q1-5.54,2.21-11.08T390,357.87c.9-3.45,1.76-6.56,2.59-9.36.82-2.3,1.6-4.51,2.34-6.65s1.35-3.94,1.84-5.42a24.93,24.93,0,0,1,1.23-3.69c.82-2.63,1.69-5.13,2.59-7.52s1.76-4.47,2.59-6.28c.82-2,1.56-3.85,2.22-5.66a.75.75,0,0,1,.24-.5,4.31,4.31,0,0,1,.49-1.23,7,7,0,0,1,1.61-2,2.47,2.47,0,0,1,2.58-.49,28.48,28.48,0,0,1,5.54,2.34,21.83,21.83,0,0,1,6.53,5.3,7.57,7.57,0,0,1,.74,1,9.81,9.81,0,0,1,.49,1.23,5.35,5.35,0,0,1,.25,1.73,12.36,12.36,0,0,1-1.72,5.66.5.5,0,0,1-.13.37.53.53,0,0,0-.12.37,13.19,13.19,0,0,0-1.6,3.08c-.74,1.72-1.44,3.25-2.1,4.56s-1.31,2.71-2,4.19-1.15,2.71-1.47,3.69q-1.25,3.45-2.47,6.9T409.81,356.89Z" transform="translate(-282.34 -228.69)"/><path class="cls-1" d="M558.1,352.7a3,3,0,0,1,2.46,3,6,6,0,0,1-.49,2.21q-1.47,3.21-4.31,8.5t-6.4,10.72a108.25,108.25,0,0,1-7.64,10.22,31.27,31.27,0,0,1-8.5,7.27,13.68,13.68,0,0,1-5.42,2.09,19.71,19.71,0,0,1-4.93.12,21.77,21.77,0,0,1-4.92-1,12.43,12.43,0,0,1-6.78-6.9,27.34,27.34,0,0,1-1.6-11.08,51.49,51.49,0,0,1-12.44,13.55q-6.78,4.92-12.93,4.43a21.77,21.77,0,0,1-8.74-2.46,14.85,14.85,0,0,1-6.66-7.27q-2.32-5.06-2-13.43t5.05-20.94q4.68-12.56,10.6-20.32a53.55,53.55,0,0,1,11.82-11.82,26.79,26.79,0,0,1,11.7-4.81,20.69,20.69,0,0,1,10.22,1,11.78,11.78,0,0,1,5.55,4.19,17.34,17.34,0,0,1,2.58,5.91q1.23-2.46,2.22-4.93c.33-.65.65-1.31,1-2a6.2,6.2,0,0,1,1.47-2.46,8.86,8.86,0,0,1,1.73-1.73,2.13,2.13,0,0,1,2.21-.24,32.81,32.81,0,0,1,5.92,3,28.63,28.63,0,0,1,6.89,5.92,4.39,4.39,0,0,1,1.24,2.46,8.72,8.72,0,0,1-.13,3.2,16.11,16.11,0,0,1-1.85,4.68c-.65,1.15-1.64,3-2.95,5.42s-2.75,5.3-4.31,8.5-3.08,6.57-4.56,10.1a79.23,79.23,0,0,0-3.45,9.85,23.43,23.43,0,0,0-1,7.76q.24,3.21,2.71,3.94,2.7,1,5.79-1.6a41.11,41.11,0,0,0,6-6.4,61.67,61.67,0,0,0,5.3-8.13l3.81-7a4.46,4.46,0,0,1,1.24-2A5.27,5.27,0,0,1,558.1,352.7ZM516,347.28A45,45,0,0,0,517.7,339a12.88,12.88,0,0,0-.37-4.93,4.82,4.82,0,0,0-1.48-2.46,10.18,10.18,0,0,0-1.35-.86,7.16,7.16,0,0,0-2.46-.13c-1.15.09-2.68.87-4.56,2.34a36.39,36.39,0,0,0-6.53,7.39,98.43,98.43,0,0,0-8.37,15.28q-4.69,10.33-5.67,15.76a24.58,24.58,0,0,0-.49,8.13q.74,3,3.2,3.45,4.68.74,9.11-4.31a70.57,70.57,0,0,0,8.13-11.46A142.44,142.44,0,0,0,515,350a.69.69,0,0,1,.25-.49Z" transform="translate(-282.34 -228.69)"/><path class="cls-1" d="M585.2,323.39c-.17.33-.66,1.35-1.48,3.08s-1.57,3.24-2.22,4.55a29.9,29.9,0,0,1-1.23,3.08,29.44,29.44,0,0,0-1.23,3.08q3-4.19,6.52-8.62a68.53,68.53,0,0,1,7.39-7.88,30.89,30.89,0,0,1,7.52-5.18,8.93,8.93,0,0,1,6.65-.74,27.93,27.93,0,0,1,7.39,4.44,25.19,25.19,0,0,1,4.93,5.54A16.19,16.19,0,0,1,621.9,333a67,67,0,0,1-1,9.73,94.06,94.06,0,0,1-3.2,13.43,99.94,99.94,0,0,1-5.79,14.41,62.62,62.62,0,0,1-8.5,13.06A41.32,41.32,0,0,1,592.09,393a25.51,25.51,0,0,1-14.28,3.07,11.25,11.25,0,0,1-5.42-1.47,15.3,15.3,0,0,1-4.31-3.82,19.41,19.41,0,0,1-3.33-7.51,225.09,225.09,0,0,0-4.93,26.35q-2,12.31-2.71,22.79t-.74,18.6q0,8.13.25,13.55a62.47,62.47,0,0,1,0,7.88,9.86,9.86,0,0,1-3.08,5.91,20.5,20.5,0,0,1-5.91,3.94,29.51,29.51,0,0,1-6.78,2.1,33.72,33.72,0,0,1-5.41.61,3.43,3.43,0,0,1-3-1.35,12.25,12.25,0,0,1-2.22-7q.25-12.08,2-26.61,1.49-12.56,4.31-29.31A350.27,350.27,0,0,1,545,384c.33-1.47.74-3.12,1.23-4.92s1-3.7,1.48-5.67c.33-1.14.7-2.3,1.11-3.45a38.52,38.52,0,0,0,1.11-3.69c.66-2.13,1.23-4.23,1.72-6.28a54.84,54.84,0,0,1,1.73-5.79q.74-2.71,1.35-4.93c.41-1.48.87-2.87,1.36-4.19q1-3.44,2.09-6.77c.74-2.22,1.36-4.06,1.85-5.54a23.47,23.47,0,0,0,1.23-3.7c.82-2.62,1.68-5.13,2.59-7.51s1.76-4.47,2.58-6.28q1.23-3,2.22-5.67a.69.69,0,0,1,.25-.49l.49-1a5.82,5.82,0,0,1,1.6-2.21,2.49,2.49,0,0,1,2.59-.5,29.13,29.13,0,0,1,5.54,2.34,25.07,25.07,0,0,1,6.77,5.3l.25.25.49,1a8.64,8.64,0,0,1,.5,2.71,12.26,12.26,0,0,1-1.73,5.67.51.51,0,0,1-.12.37A.46.46,0,0,0,585.2,323.39Zm17.24,3.94q-6.66,5.67-13.06,11.82a149.65,149.65,0,0,0-10.84,11.58,64.85,64.85,0,0,0-8.62,12.81c-.16.66-.33,1.32-.49,2s-.33,1.32-.49,2c.16.82.45,2.18.86,4.06a41.46,41.46,0,0,0,1.72,5.79,21.72,21.72,0,0,0,3,5.42,6.27,6.27,0,0,0,4.56,2.71q2,.24,4.92-2.95a45.33,45.33,0,0,0,5.92-8.5,125.28,125.28,0,0,0,5.78-11.95,109,109,0,0,0,4.68-13.18,83.32,83.32,0,0,0,2.59-12.31Q603.67,330.78,602.44,327.33Z" transform="translate(-282.34 -228.69)"/><path class="cls-1" d="M715.26,352.7a3,3,0,0,1,2.46,3,6,6,0,0,1-.49,2.21q-1.49,3.21-4.31,8.5t-6.41,10.72a106.47,106.47,0,0,1-7.63,10.22,31.42,31.42,0,0,1-8.5,7.27,13.74,13.74,0,0,1-5.42,2.09,19.71,19.71,0,0,1-4.93.12,21.55,21.55,0,0,1-4.92-1,12.4,12.4,0,0,1-6.78-6.9,27.17,27.17,0,0,1-1.6-11.08,51.66,51.66,0,0,1-12.44,13.55q-6.78,4.92-12.93,4.43a21.81,21.81,0,0,1-8.75-2.46,14.87,14.87,0,0,1-6.65-7.27q-2.34-5.06-2-13.43t5-20.94q4.68-12.56,10.59-20.32a53.57,53.57,0,0,1,11.83-11.82,26.79,26.79,0,0,1,11.7-4.81,20.69,20.69,0,0,1,10.22,1,11.75,11.75,0,0,1,5.54,4.19,17.17,17.17,0,0,1,2.59,5.91q1.23-2.46,2.22-4.93l1-2a6.22,6.22,0,0,1,1.48-2.46,8.59,8.59,0,0,1,1.73-1.73,2.13,2.13,0,0,1,2.21-.24,32.47,32.47,0,0,1,5.91,3,28.67,28.67,0,0,1,6.9,5.92,4.32,4.32,0,0,1,1.23,2.46,8.69,8.69,0,0,1-.12,3.2,16.41,16.41,0,0,1-1.85,4.68q-1,1.72-3,5.42t-4.31,8.5c-1.57,3.2-3.08,6.57-4.56,10.1a79.23,79.23,0,0,0-3.45,9.85,23.43,23.43,0,0,0-1,7.76q.24,3.21,2.7,3.94,2.72,1,5.79-1.6a41.14,41.14,0,0,0,6-6.4,60.62,60.62,0,0,0,5.29-8.13l3.82-7a4.43,4.43,0,0,1,1.23-2A5.3,5.3,0,0,1,715.26,352.7Zm-42.13-5.42a45.21,45.21,0,0,0,1.73-8.25,12.88,12.88,0,0,0-.37-4.93,4.82,4.82,0,0,0-1.48-2.46,11.69,11.69,0,0,0-1.35-.86,7.23,7.23,0,0,0-2.47-.13q-1.73.14-4.55,2.34a36.39,36.39,0,0,0-6.53,7.39,98.33,98.33,0,0,0-8.38,15.28q-4.68,10.33-5.66,15.76a24.65,24.65,0,0,0-.5,8.13c.5,2,1.56,3.12,3.21,3.45q4.68.74,9.11-4.31A70.57,70.57,0,0,0,664,367.23,142.44,142.44,0,0,0,672.15,350a.69.69,0,0,1,.25-.49Z" transform="translate(-282.34 -228.69)"/><path class="cls-1" d="M734.47,342.6c-.82,2.14-1.64,4.35-2.46,6.65s-1.65,4.6-2.47,6.9q4.68-7.87,10.23-16.14a140,140,0,0,1,11.08-14.53A48,48,0,0,1,761.69,316q5.29-3.21,9.73-1a47.83,47.83,0,0,1,5.42,3,29.59,29.59,0,0,1,6.16,5.17,7.59,7.59,0,0,1,1,2.71,10,10,0,0,1,0,3.2,13.67,13.67,0,0,1-1.72,4.68q-1.49,2.22-4.8,8.62t-6.53,13.8a3,3,0,0,1-3,1.48,16.37,16.37,0,0,1-4.68-.74c-1.64-.49-3.29-1.07-4.93-1.73l-3.69-1.47q-2-1-2.22-2.34a13.09,13.09,0,0,1-.24-2.1c1-2.79,2-5.5,2.95-8.13s2-5.09,3-7.39l-.49.25a126.51,126.51,0,0,0-13.55,16.26,213.41,213.41,0,0,0-12.32,19.7,187,187,0,0,0-12.32,27.35V398a2.18,2.18,0,0,1-1.11,1.84,3.62,3.62,0,0,1-1.35.37,18.69,18.69,0,0,1-7.76-2.21,19.51,19.51,0,0,1-4.56-3.7,4,4,0,0,1-1.23-2.95,2.28,2.28,0,0,1,0-1.48,86.77,86.77,0,0,1,1.23-10.23q1-5.54,2.22-11.08t2.59-10.72c.9-3.45,1.76-6.56,2.58-9.36.82-2.3,1.61-4.51,2.34-6.65s1.36-3.94,1.85-5.42a6.2,6.2,0,0,0,.62-1.85,6,6,0,0,1,.61-1.84c.82-2.63,1.69-5.13,2.59-7.52s1.76-4.47,2.59-6.28c.82-2,1.56-3.85,2.21-5.66a.73.73,0,0,1,.25-.5,4.31,4.31,0,0,1,.49-1.23,6.9,6.9,0,0,1,1.6-2,2.48,2.48,0,0,1,2.59-.49,28.48,28.48,0,0,1,5.54,2.34,21.83,21.83,0,0,1,6.53,5.3,7.57,7.57,0,0,1,.74,1,9.81,9.81,0,0,1,.49,1.23,5.63,5.63,0,0,1,.25,1.73,12.26,12.26,0,0,1-1.73,5.66.5.5,0,0,1-.12.37.53.53,0,0,0-.12.37,13.19,13.19,0,0,0-1.6,3.08c-.74,1.72-1.44,3.25-2.1,4.56s-1.27,2.71-1.84,4.19S734.8,341.62,734.47,342.6Z" transform="translate(-282.34 -228.69)"/><path class="cls-1" d="M871.92,352.7a3,3,0,0,1,2.46,3,6,6,0,0,1-.49,2.21q-1.47,3.21-4.31,8.5t-6.4,10.72a108.25,108.25,0,0,1-7.64,10.22,31.27,31.27,0,0,1-8.5,7.27,13.68,13.68,0,0,1-5.42,2.09,19.64,19.64,0,0,1-4.92.12,21.75,21.75,0,0,1-4.93-1,12.38,12.38,0,0,1-6.77-6.9,27.16,27.16,0,0,1-1.61-11.08A51.49,51.49,0,0,1,811,391.38q-6.76,4.92-12.93,4.43a21.81,21.81,0,0,1-8.74-2.46,14.78,14.78,0,0,1-6.65-7.27q-2.34-5.06-2-13.43t5.05-20.94q4.66-12.56,10.59-20.32a53.55,53.55,0,0,1,11.82-11.82,26.79,26.79,0,0,1,11.7-4.81,20.69,20.69,0,0,1,10.22,1,11.73,11.73,0,0,1,5.55,4.19,17.34,17.34,0,0,1,2.58,5.91q1.23-2.46,2.22-4.93c.33-.65.65-1.31,1-2a6.2,6.2,0,0,1,1.47-2.46,8.86,8.86,0,0,1,1.73-1.73,2.15,2.15,0,0,1,2.22-.24,33.12,33.12,0,0,1,5.91,3,28.86,28.86,0,0,1,6.9,5.92,4.44,4.44,0,0,1,1.23,2.46,8.72,8.72,0,0,1-.13,3.2,16.34,16.34,0,0,1-1.84,4.68q-1,1.72-3,5.42t-4.31,8.5q-2.34,4.8-4.56,10.1a79.23,79.23,0,0,0-3.45,9.85,23.43,23.43,0,0,0-1,7.76q.24,3.21,2.71,3.94,2.7,1,5.79-1.6a41.11,41.11,0,0,0,6-6.4,60.68,60.68,0,0,0,5.3-8.13l3.82-7a4.34,4.34,0,0,1,1.23-2A5.27,5.27,0,0,1,871.92,352.7Zm-42.12-5.42a45,45,0,0,0,1.72-8.25,12.88,12.88,0,0,0-.37-4.93,4.89,4.89,0,0,0-1.47-2.46,10.84,10.84,0,0,0-1.36-.86,7.16,7.16,0,0,0-2.46-.13q-1.73.14-4.56,2.34a36.69,36.69,0,0,0-6.53,7.39,98.43,98.43,0,0,0-8.37,15.28q-4.68,10.33-5.67,15.76a24.58,24.58,0,0,0-.49,8.13q.74,3,3.2,3.45,4.68.74,9.12-4.31a71.15,71.15,0,0,0,8.12-11.46A142.44,142.44,0,0,0,828.81,350a.69.69,0,0,1,.25-.49Z" transform="translate(-282.34 -228.69)"/><path class="cls-1" d="M945.08,395.56q-6.17-2.71-7.51-9.85a50.52,50.52,0,0,1-.12-16.26,99,99,0,0,1,4.43-18.6q3.2-9.48,6.4-17.12l-.49.25q-4.93,6.4-10.34,15-4.69,7.39-10.23,18.48a264,264,0,0,0-11,25.62,6.09,6.09,0,0,1-1.6,1.85l-1.6,1.1a4.51,4.51,0,0,1-1.48.25h-1.23a14.82,14.82,0,0,1-3.57-.86,12.39,12.39,0,0,1-2.34-1.11q-4.94-3.45-5.79-10.71a55.47,55.47,0,0,1,.61-15.89A118.52,118.52,0,0,1,903.82,350q3.07-9.11,6-16.26l-.5.25a150.86,150.86,0,0,0-11.08,16.5q-4.93,8.13-10.84,20.08A274.76,274.76,0,0,0,875.86,398a2.18,2.18,0,0,1-1.11,1.84,3.62,3.62,0,0,1-1.35.37,18.64,18.64,0,0,1-7.76-2.21,19.51,19.51,0,0,1-4.56-3.7,4,4,0,0,1-1.23-2.95,2.28,2.28,0,0,1,0-1.48,86.77,86.77,0,0,1,1.23-10.23q1-5.54,2.22-11.08T866,357.87c1-3.45,1.88-6.56,2.71-9.36.65-2.3,1.35-4.51,2.09-6.65s1.36-3.94,1.85-5.42a23.78,23.78,0,0,0,1.23-3.69c.82-2.63,1.68-5.13,2.59-7.52s1.76-4.47,2.58-6.28c.82-2,1.56-3.85,2.22-5.66a.73.73,0,0,1,.25-.5,4.31,4.31,0,0,1,.49-1.23,20,20,0,0,1,1.72-2,2.59,2.59,0,0,1,2.71-.49,27.24,27.24,0,0,1,12.07,7.64,2.61,2.61,0,0,1,.5,1,11.63,11.63,0,0,1,.49,1.23,5.63,5.63,0,0,1,.25,1.73,14.8,14.8,0,0,1-.25,2.58,8,8,0,0,1-1.48,3.08,1,1,0,0,1-.24.74c-.17.33-.66,1.36-1.48,3.08s-1.56,3.25-2.22,4.56c-.49,1.31-1.07,2.71-1.72,4.19a39.12,39.12,0,0,0-1.48,3.69l-2.22,5.91q3.95-7.14,8.38-14a85,85,0,0,1,9-11.82,32.1,32.1,0,0,1,9-7.15q4.43-2.21,8.13-.49a47.83,47.83,0,0,1,5.42,3,29.85,29.85,0,0,1,6.16,5.17,7.59,7.59,0,0,1,1,2.71,10.59,10.59,0,0,1,0,3.2,13.67,13.67,0,0,1-1.72,4.68q-.75,1.25-2.22,3.82t-3.2,6c-1.15,2.3-2.39,4.8-3.7,7.51s-2.46,5.38-3.45,8q4.19-8.13,9.24-16.88a125.4,125.4,0,0,1,10.47-15.52,49.8,49.8,0,0,1,10.72-10.34q5.28-3.57,9.73-1.36a47.82,47.82,0,0,1,5.41,3,29.33,29.33,0,0,1,6.16,5.17,7.6,7.6,0,0,1,1,2.71,10.59,10.59,0,0,1,0,3.2,13.72,13.72,0,0,1-1.73,4.68c-.65,1.15-1.64,3-2.95,5.42s-2.75,5.3-4.31,8.5-3.08,6.57-4.56,10.1a79.23,79.23,0,0,0-3.45,9.85,26.76,26.76,0,0,0-1.11,7.76c.08,2.14,1,3.45,2.59,3.94,2,.5,4-.08,6-1.72a35.32,35.32,0,0,0,6-6.4,68.16,68.16,0,0,0,5.3-8.26l3.81-7a4.46,4.46,0,0,1,1.24-2,5.37,5.37,0,0,1,4.43-1.23c1,.17,1.6.49,1.85,1a3.89,3.89,0,0,1,.37,1.72,8.29,8.29,0,0,1-.49,2.46q-1.49,3.21-4.19,8.38t-6.28,10.59A109,109,0,0,1,969,387.19a32.19,32.19,0,0,1-8.63,7.39,15.7,15.7,0,0,1-5.42,1.84,20.14,20.14,0,0,1-4.92.13A22.29,22.29,0,0,1,945.08,395.56Z" transform="translate(-282.34 -228.69)"/><path class="cls-1" d="M1068.25,352.7a3,3,0,0,1,2.46,3,6,6,0,0,1-.49,2.21q-1.48,3.21-4.31,8.5t-6.41,10.72a106.47,106.47,0,0,1-7.63,10.22,31.42,31.42,0,0,1-8.5,7.27,13.74,13.74,0,0,1-5.42,2.09,19.71,19.71,0,0,1-4.93.12,21.55,21.55,0,0,1-4.92-1,12.4,12.4,0,0,1-6.78-6.9,27.17,27.17,0,0,1-1.6-11.08,51.66,51.66,0,0,1-12.44,13.55q-6.78,4.92-12.93,4.43a21.81,21.81,0,0,1-8.75-2.46,14.87,14.87,0,0,1-6.65-7.27q-2.34-5.06-2-13.43t5-20.94q4.68-12.56,10.59-20.32a53.57,53.57,0,0,1,11.83-11.82,26.79,26.79,0,0,1,11.7-4.81,20.71,20.71,0,0,1,10.22,1,11.75,11.75,0,0,1,5.54,4.19,17.17,17.17,0,0,1,2.59,5.91q1.23-2.46,2.22-4.93l1-2a6.22,6.22,0,0,1,1.48-2.46,8.59,8.59,0,0,1,1.73-1.73,2.13,2.13,0,0,1,2.21-.24,32.47,32.47,0,0,1,5.91,3,28.67,28.67,0,0,1,6.9,5.92,4.32,4.32,0,0,1,1.23,2.46,8.69,8.69,0,0,1-.12,3.2,16.41,16.41,0,0,1-1.85,4.68q-1,1.72-3,5.42t-4.31,8.5c-1.57,3.2-3.08,6.57-4.56,10.1a79.23,79.23,0,0,0-3.45,9.85,23.74,23.74,0,0,0-1,7.76q.25,3.21,2.71,3.94,2.71,1,5.79-1.6a41.14,41.14,0,0,0,6-6.4,60.62,60.62,0,0,0,5.29-8.13l3.82-7a4.43,4.43,0,0,1,1.23-2A5.3,5.3,0,0,1,1068.25,352.7Zm-42.12-5.42a45.9,45.9,0,0,0,1.72-8.25,12.88,12.88,0,0,0-.37-4.93,4.82,4.82,0,0,0-1.48-2.46,11.69,11.69,0,0,0-1.35-.86,7.23,7.23,0,0,0-2.47-.13q-1.73.14-4.55,2.34a36.39,36.39,0,0,0-6.53,7.39,98.33,98.33,0,0,0-8.38,15.28Q998,366,997.06,371.42a24.65,24.65,0,0,0-.5,8.13c.5,2,1.56,3.12,3.21,3.45,3.11.49,6.16-.95,9.11-4.31a70.57,70.57,0,0,0,8.13-11.46,142.44,142.44,0,0,0,8.13-17.24.69.69,0,0,1,.25-.49Z" transform="translate(-282.34 -228.69)"/></svg>